<svg width="21" height="21" viewBox="0 0 21 21" fill="none" xmlns="http://www.w3.org/2000/svg">
<g clip-path="url(#clip0_578_2180)">
<path d="M10.5002 0C8.59359 4.32068e-05 6.72999 0.566313 5.1457 1.62699C3.56142 2.68767 2.32784 4.19496 1.6014 5.95771C0.874969 7.72046 0.688416 9.65924 1.0654 11.5282C1.44239 13.3971 2.36593 15.1119 3.7189 16.4553L7.16903 19.6411C8.05583 20.5092 9.24647 20.9968 10.4874 21C11.7283 21.0033 12.9215 20.522 13.8129 19.6586L17.3059 16.4308C18.6519 15.0847 19.5686 13.3697 19.9399 11.5027C20.3113 9.63563 20.1207 7.70041 19.3922 5.94171C18.6637 4.18301 17.4301 2.67982 15.8474 1.6222C14.2646 0.56459 12.4038 6.04266e-05 10.5002 0V0ZM16.0932 15.1699L12.6072 18.3908C12.034 18.9308 11.2753 19.2302 10.4878 19.2273C9.7003 19.2244 8.94394 18.9193 8.37478 18.375L4.93165 15.1935C4.01592 14.2778 3.34016 13.1503 2.96424 11.911C2.58831 10.6717 2.52382 9.35888 2.77647 8.08871C3.02913 6.81855 3.59113 5.6303 4.4127 4.62922C5.23427 3.62813 6.29004 2.84512 7.48651 2.34952C8.68298 1.85393 9.9832 1.66105 11.272 1.78799C12.5608 1.91492 13.7984 2.35774 14.8752 3.07722C15.952 3.79671 16.8348 4.77065 17.4453 5.91277C18.0557 7.0549 18.3751 8.32995 18.3752 9.625C18.379 10.654 18.1794 11.6737 17.7877 12.6253C17.3961 13.5769 16.8202 14.4416 16.0932 15.1699ZM14.6214 6.70513L11.9964 4.88425C11.5566 4.58036 11.0347 4.41758 10.5002 4.41758C9.96558 4.41758 9.44369 4.58036 9.0039 4.88425L6.3789 6.70513C6.03057 6.94677 5.74595 7.26919 5.54938 7.64481C5.35281 8.02042 5.25014 8.43806 5.25015 8.862V11.8125C5.25015 12.3927 5.48062 12.9491 5.89086 13.3593C6.30109 13.7695 6.85749 14 7.43765 14H13.5627C14.1428 14 14.6992 13.7695 15.1094 13.3593C15.5197 12.9491 15.7502 12.3927 15.7502 11.8125V8.862C15.7502 8.43806 15.6475 8.02042 15.4509 7.64481C15.2544 7.26919 14.9697 6.94677 14.6214 6.70513ZM14.0002 11.8125C14.0002 11.9285 13.9541 12.0398 13.872 12.1219C13.79 12.2039 13.6787 12.25 13.5627 12.25H12.2502V10.5C12.2502 10.2679 12.158 10.0454 11.9939 9.88128C11.8298 9.71719 11.6072 9.625 11.3752 9.625H9.62515C9.39309 9.625 9.17053 9.71719 9.00643 9.88128C8.84234 10.0454 8.75015 10.2679 8.75015 10.5V12.25H7.43765C7.32162 12.25 7.21034 12.2039 7.12829 12.1219C7.04625 12.0398 7.00015 11.9285 7.00015 11.8125V8.862C7.0001 8.72064 7.0343 8.58137 7.09983 8.45611C7.16535 8.33085 7.26025 8.22333 7.3764 8.14275L10.0014 6.32188C10.1482 6.22097 10.3221 6.16694 10.5002 6.16694C10.6782 6.16694 10.8522 6.22097 10.9989 6.32188L13.6239 8.14275C13.7401 8.22333 13.835 8.33085 13.9005 8.45611C13.966 8.58137 14.0002 8.72064 14.0002 8.862V11.8125Z" fill="#931B1E"/>
</g>
<defs>
<clipPath id="clip0_578_2180">
<rect width="21" height="21" fill="white"/>
</clipPath>
</defs>
</svg>
