<svg width="17" height="18" viewBox="0 0 17 18" fill="none" xmlns="http://www.w3.org/2000/svg">
<path d="M1.7 17C1.2325 17 0.832292 16.8335 0.499375 16.5006C0.166458 16.1677 0 15.7675 0 15.3V3.4C0 2.9325 0.166458 2.53229 0.499375 2.19938C0.832292 1.86646 1.2325 1.7 1.7 1.7H2.55V0H4.25V1.7H11.05V0H12.75V1.7H13.6C14.0675 1.7 14.4677 1.86646 14.8006 2.19938C15.1335 2.53229 15.3 2.9325 15.3 3.4V8.22375C15.0308 8.09625 14.7546 7.99 14.4713 7.905C14.1879 7.82 13.8975 7.75625 13.6 7.71375V6.8H1.7V15.3H7.055C7.15417 15.6117 7.27104 15.9092 7.40562 16.1925C7.54021 16.4758 7.69958 16.745 7.88375 17H1.7ZM12.75 17.85C11.5742 17.85 10.5719 17.4356 9.74312 16.6069C8.91438 15.7781 8.5 14.7758 8.5 13.6C8.5 12.4242 8.91438 11.4219 9.74312 10.5931C10.5719 9.76438 11.5742 9.35 12.75 9.35C13.9258 9.35 14.9281 9.76438 15.7569 10.5931C16.5856 11.4219 17 12.4242 17 13.6C17 14.7758 16.5856 15.7781 15.7569 16.6069C14.9281 17.4356 13.9258 17.85 12.75 17.85ZM14.1737 15.6188L14.7688 15.0238L13.175 13.43V11.05H12.325V13.77L14.1737 15.6188Z" fill="white"/>
</svg>
