<svg width="19" height="19" viewBox="0 0 19 19" fill="none" xmlns="http://www.w3.org/2000/svg">
<g clip-path="url(#clip0_554_1812)">
<path d="M17.0764 3.44761H13.2668V1.9238C13.2668 1.51966 13.1063 1.13208 12.8205 0.846307C12.5347 0.560538 12.1472 0.399994 11.743 0.399994L7.17159 0.399994C6.76745 0.399994 6.37986 0.560538 6.09409 0.846307C5.80832 1.13208 5.64778 1.51966 5.64778 1.9238V3.44761H1.83826V4.97142H3.36207V16.4C3.36207 17.0062 3.60288 17.5876 4.03154 18.0162C4.46019 18.4449 5.04157 18.6857 5.64778 18.6857H13.2668C13.873 18.6857 14.4544 18.4449 14.8831 18.0162C15.3117 17.5876 15.5525 17.0062 15.5525 16.4V4.97142H17.0764V3.44761ZM7.17159 1.9238H11.743V3.44761H7.17159V1.9238ZM14.0287 16.4C14.0287 16.6021 13.9485 16.7959 13.8056 16.9387C13.6627 17.0816 13.4689 17.1619 13.2668 17.1619H5.64778C5.44571 17.1619 5.25192 17.0816 5.10903 16.9387C4.96615 16.7959 4.88588 16.6021 4.88588 16.4V4.97142H14.0287V16.4Z" fill="#FF0000"/>
<path d="M8.69532 8.01858H7.17151V14.1138H8.69532V8.01858Z" fill="#FF0000"/>
<path d="M11.7432 8.01858H10.2194V14.1138H11.7432V8.01858Z" fill="#FF0000"/>
</g>
<defs>
<clipPath id="clip0_554_1812">
<rect width="18.2857" height="18.2857" fill="white" transform="translate(0.314331 0.400002)"/>
</clipPath>
</defs>
</svg>
