<svg width="21" height="21" viewBox="0 0 21 21" fill="none" xmlns="http://www.w3.org/2000/svg">
<path d="M18.3749 10.8708V9.62476C18.3749 7.53618 17.5452 5.53314 16.0684 4.05629C14.5915 2.57944 12.5885 1.74976 10.4999 1.74976C8.41135 1.74976 6.40831 2.57944 4.93146 4.05629C3.45461 5.53314 2.62493 7.53618 2.62493 9.62476V10.8708C1.70719 11.2749 0.956127 11.982 0.49747 12.8737C0.0388136 13.7654 -0.0995954 14.7876 0.105414 15.7692C0.310424 16.7508 0.846408 17.6322 1.62364 18.2658C2.40087 18.8994 3.37216 19.2468 4.37493 19.2498C4.83905 19.2498 5.28417 19.0654 5.61236 18.7372C5.94055 18.409 6.12493 17.9639 6.12493 17.4998V12.2498C6.12493 11.7856 5.94055 11.3405 5.61236 11.0123C5.28417 10.6841 4.83905 10.4998 4.37493 10.4998V9.62476C4.37493 8.0003 5.02024 6.44239 6.1689 5.29373C7.31756 4.14507 8.87547 3.49976 10.4999 3.49976C12.1244 3.49976 13.6823 4.14507 14.831 5.29373C15.9796 6.44239 16.6249 8.0003 16.6249 9.62476V10.4998C16.1608 10.4998 15.7157 10.6841 15.3875 11.0123C15.0593 11.3405 14.8749 11.7856 14.8749 12.2498V17.4998H12.2499C12.0179 17.4998 11.7953 17.5919 11.6312 17.756C11.4671 17.9201 11.3749 18.1427 11.3749 18.3748C11.3749 18.6068 11.4671 18.8294 11.6312 18.9935C11.7953 19.1576 12.0179 19.2498 12.2499 19.2498H16.6249C17.6277 19.2468 18.599 18.8994 19.3762 18.2658C20.1534 17.6322 20.6894 16.7508 20.8944 15.7692C21.0994 14.7876 20.961 13.7654 20.5024 12.8737C20.0437 11.982 19.2927 11.2749 18.3749 10.8708ZM4.37493 17.4998C3.67873 17.4998 3.01105 17.2232 2.51877 16.7309C2.02649 16.2386 1.74993 15.5709 1.74993 14.8748C1.74993 14.1786 2.02649 13.5109 2.51877 13.0186C3.01105 12.5263 3.67873 12.2498 4.37493 12.2498V17.4998ZM16.6249 17.4998V12.2498C17.3211 12.2498 17.9888 12.5263 18.4811 13.0186C18.9734 13.5109 19.2499 14.1786 19.2499 14.8748C19.2499 15.5709 18.9734 16.2386 18.4811 16.7309C17.9888 17.2232 17.3211 17.4998 16.6249 17.4998Z" fill="#931B1E"/>
</svg>
