<svg width="26" height="26" viewBox="0 0 26 26" fill="none" xmlns="http://www.w3.org/2000/svg">
<path d="M20.5833 11.9167H9.75L13.3142 8.35249C13.4157 8.25178 13.4963 8.13196 13.5513 7.99995C13.6063 7.86794 13.6346 7.72634 13.6346 7.58332C13.6346 7.44031 13.6063 7.29871 13.5513 7.1667C13.4963 7.03469 13.4157 6.91487 13.3142 6.81416C13.1112 6.61239 12.8366 6.49913 12.5504 6.49913C12.2642 6.49913 11.9896 6.61239 11.7867 6.81416L7.13917 11.4725C6.73228 11.8769 6.50242 12.4263 6.5 13C6.50527 13.5699 6.73491 14.1148 7.13917 14.5166L11.7867 19.175C11.8877 19.2753 12.0074 19.3547 12.1392 19.4087C12.2709 19.4627 12.4119 19.4903 12.5542 19.4897C12.6966 19.4892 12.8374 19.4607 12.9688 19.4058C13.1001 19.3508 13.2193 19.2706 13.3196 19.1696C13.4199 19.0686 13.4993 18.9488 13.5533 18.8171C13.6073 18.6854 13.6349 18.5443 13.6344 18.402C13.6338 18.2596 13.6053 18.1188 13.5504 17.9875C13.4954 17.8562 13.4152 17.7369 13.3142 17.6366L9.75 14.0833H20.5833C20.8707 14.0833 21.1462 13.9692 21.3494 13.766C21.5525 13.5629 21.6667 13.2873 21.6667 13C21.6667 12.7127 21.5525 12.4371 21.3494 12.234C21.1462 12.0308 20.8707 11.9167 20.5833 11.9167Z" fill="#AAAAAA"/>
</svg>
