<svg width="40" height="51" viewBox="0 0 40 51" fill="none" xmlns="http://www.w3.org/2000/svg">
<circle cx="20.0001" cy="20" r="18.3333" fill="#931C1F"/>
<path d="M25.4916 39.7583L20.8333 44.4083C20.6771 44.5635 20.4659 44.6506 20.2458 44.6506C20.0256 44.6506 19.8144 44.5635 19.6583 44.4083L14.9999 39.7583C14.8824 39.6417 14.8023 39.4928 14.7697 39.3305C14.7371 39.1682 14.7536 38.9999 14.8171 38.8471C14.8806 38.6942 14.9882 38.5637 15.1261 38.4722C15.264 38.3807 15.4261 38.3323 15.5916 38.3333L24.8999 38.3333C25.0655 38.3323 25.2275 38.3807 25.3654 38.4722C25.5034 38.5637 25.6109 38.6942 25.6744 38.8471C25.7379 38.9999 25.7544 39.1682 25.7218 39.3305C25.6893 39.4928 25.6091 39.6417 25.4916 39.7583Z" fill="#931C1F"/>
<g clip-path="url(#clip0_575_1364)">
<path d="M20 0C16.0444 0 12.1776 1.17298 8.8886 3.37061C5.59962 5.56824 3.03617 8.69181 1.52242 12.3463C0.00866572 16.0009 -0.387401 20.0222 0.384303 23.9018C1.15601 27.7814 3.06082 31.3451 5.85787 34.1421C8.65492 36.9392 12.2186 38.844 16.0982 39.6157C19.9778 40.3874 23.9992 39.9913 27.6537 38.4776C31.3082 36.9638 34.4318 34.4004 36.6294 31.1114C38.827 27.8224 40 23.9556 40 20C40 14.6957 37.8929 9.60859 34.1421 5.85786C30.3914 2.10714 25.3043 0 20 0V0ZM20 36.6667C16.7037 36.6667 13.4813 35.6892 10.7405 33.8578C7.99969 32.0265 5.86348 29.4235 4.60202 26.3781C3.34056 23.3326 3.0105 19.9815 3.65359 16.7485C4.29667 13.5155 5.88402 10.5458 8.2149 8.21489C10.5458 5.88401 13.5155 4.29667 16.7485 3.65358C19.9815 3.01049 23.3326 3.34055 26.3781 4.60201C29.4235 5.86347 32.0265 7.99968 33.8578 10.7405C35.6892 13.4813 36.6667 16.7036 36.6667 20C36.6667 24.4203 34.9107 28.6595 31.7851 31.7851C28.6595 34.9107 24.4203 36.6667 20 36.6667Z" fill="#931C1F"/>
</g>
<g clip-path="url(#clip1_575_1364)">
<path d="M20.0001 15.8333C19.3408 15.8333 18.6963 16.0288 18.1482 16.3951C17.6 16.7614 17.1728 17.282 16.9205 17.8911C16.6682 18.5001 16.6022 19.1704 16.7308 19.817C16.8594 20.4636 17.1769 21.0575 17.6431 21.5237C18.1092 21.9899 18.7032 22.3073 19.3498 22.436C19.9964 22.5646 20.6666 22.4986 21.2757 22.2463C21.8848 21.994 22.4054 21.5667 22.7716 21.0186C23.1379 20.4704 23.3334 19.8259 23.3334 19.1667C23.3334 18.2826 22.9822 17.4348 22.3571 16.8096C21.732 16.1845 20.8841 15.8333 20.0001 15.8333ZM20.0001 20.8333C19.6704 20.8333 19.3482 20.7356 19.0741 20.5525C18.8001 20.3693 18.5864 20.109 18.4603 19.8045C18.3341 19.4999 18.3011 19.1648 18.3654 18.8415C18.4297 18.5182 18.5885 18.2212 18.8216 17.9882C19.0547 17.7551 19.3516 17.5963 19.6749 17.532C19.9982 17.4677 20.3333 17.5007 20.6379 17.6269C20.9424 17.753 21.2027 17.9666 21.3859 18.2407C21.569 18.5148 21.6668 18.837 21.6668 19.1667C21.6668 19.6087 21.4912 20.0326 21.1786 20.3452C20.866 20.6577 20.4421 20.8333 20.0001 20.8333Z" fill="white"/>
<path d="M20 30.8336C19.2983 30.8372 18.6059 30.6726 17.9809 30.3536C17.3559 30.0346 16.8163 29.5706 16.4075 29.0002C13.2317 24.6194 11.6208 21.3261 11.6208 19.2111C11.6208 16.9888 12.5037 14.8575 14.0751 13.2861C15.6464 11.7147 17.7777 10.8319 20 10.8319C22.2223 10.8319 24.3536 11.7147 25.925 13.2861C27.4964 14.8575 28.3792 16.9888 28.3792 19.2111C28.3792 21.3261 26.7684 24.6194 23.5925 29.0002C23.1837 29.5706 22.6442 30.0346 22.0191 30.3536C21.3941 30.6726 20.7017 30.8372 20 30.8336ZM20 12.6511C18.2604 12.6531 16.5925 13.345 15.3624 14.5751C14.1323 15.8052 13.4403 17.4731 13.4383 19.2127C13.4383 20.8877 15.0158 23.9852 17.8792 27.9344C18.1223 28.2692 18.4412 28.5417 18.8098 28.7296C19.1784 28.9175 19.5863 29.0155 20 29.0155C20.4138 29.0155 20.8216 28.9175 21.1903 28.7296C21.5589 28.5417 21.8778 28.2692 22.1208 27.9344C24.9842 23.9852 26.5617 20.8877 26.5617 19.2127C26.5597 17.4731 25.8677 15.8052 24.6376 14.5751C23.4075 13.345 21.7397 12.6531 20 12.6511Z" fill="white"/>
</g>
<defs>
<clipPath id="clip0_575_1364">
<rect width="40" height="40" fill="white"/>
</clipPath>
<clipPath id="clip1_575_1364">
<rect width="20" height="20" fill="white" transform="translate(10 10.8333)"/>
</clipPath>
</defs>
</svg>
