<svg width="20" height="20" viewBox="0 0 20 20" fill="none" xmlns="http://www.w3.org/2000/svg">
<g clip-path="url(#clip0_578_2193)">
<path d="M9.56333 12.5C9.34232 12.5 9.13036 12.5878 8.97408 12.7441C8.8178 12.9004 8.73 13.1123 8.73 13.3333V15.8333C8.73 16.4964 8.46661 17.1323 7.99777 17.6011C7.52893 18.0699 6.89304 18.3333 6.23 18.3333H4.16667C3.50363 18.3333 2.86774 18.0699 2.3989 17.6011C1.93006 17.1323 1.66667 16.4964 1.66667 15.8333V4.16667C1.66667 3.50363 1.93006 2.86774 2.3989 2.3989C2.86774 1.93006 3.50363 1.66667 4.16667 1.66667H6.23C6.89304 1.66667 7.52893 1.93006 7.99777 2.3989C8.46661 2.86774 8.73 3.50363 8.73 4.16667V6.66667C8.73 6.88768 8.8178 7.09964 8.97408 7.25592C9.13036 7.4122 9.34232 7.5 9.56333 7.5C9.78435 7.5 9.99631 7.4122 10.1526 7.25592C10.3089 7.09964 10.3967 6.88768 10.3967 6.66667V4.16667C10.3953 3.062 9.95593 2.00296 9.17482 1.22185C8.3937 0.440735 7.33466 0.00132321 6.23 0H4.16667C3.062 0.00132321 2.00296 0.440735 1.22185 1.22185C0.440735 2.00296 0.00132321 3.062 0 4.16667L0 15.8333C0.00132321 16.938 0.440735 17.997 1.22185 18.7782C2.00296 19.5593 3.062 19.9987 4.16667 20H6.23C7.33466 19.9987 8.3937 19.5593 9.17482 18.7782C9.95593 17.997 10.3953 16.938 10.3967 15.8333V13.3333C10.3967 13.1123 10.3089 12.9004 10.1526 12.7441C9.99631 12.5878 9.78435 12.5 9.56333 12.5Z" fill="#931B1E"/>
<path d="M19.056 8.23269L15.2343 4.41102C15.1574 4.33143 15.0655 4.26795 14.9638 4.22427C14.8621 4.1806 14.7528 4.15761 14.6421 4.15665C14.5315 4.15569 14.4218 4.17677 14.3193 4.21867C14.2169 4.26057 14.1239 4.32245 14.0456 4.40069C13.9674 4.47894 13.9055 4.57198 13.8636 4.67439C13.8217 4.77681 13.8006 4.88654 13.8016 4.99719C13.8026 5.10784 13.8256 5.21719 13.8692 5.31886C13.9129 5.42053 13.9764 5.51248 14.056 5.58936L17.6076 9.14186L5.00014 9.16686C4.77913 9.16686 4.56717 9.25465 4.41089 9.41093C4.25461 9.56721 4.16681 9.77918 4.16681 10.0002C4.16681 10.2212 4.25461 10.4332 4.41089 10.5894C4.56717 10.7457 4.77913 10.8335 5.00014 10.8335L17.6568 10.8077L14.0543 14.411C13.9747 14.4879 13.9112 14.5799 13.8676 14.6815C13.8239 14.7832 13.8009 14.8925 13.7999 15.0032C13.799 15.1138 13.8201 15.2236 13.862 15.326C13.9039 15.4284 13.9657 15.5214 14.044 15.5997C14.1222 15.6779 14.2153 15.7398 14.3177 15.7817C14.4201 15.8236 14.5298 15.8447 14.6405 15.8437C14.7511 15.8428 14.8605 15.8198 14.9621 15.7761C15.0638 15.7324 15.1558 15.669 15.2326 15.5894L19.0543 11.7677C19.5232 11.2991 19.7868 10.6634 19.7871 10.0005C19.7874 9.33762 19.5244 8.70173 19.056 8.23269Z" fill="#931B1E"/>
</g>
<defs>
<clipPath id="clip0_578_2193">
<rect width="20" height="20" fill="white"/>
</clipPath>
</defs>
</svg>
