<svg width="110" height="110" viewBox="0 0 110 110" fill="none" xmlns="http://www.w3.org/2000/svg">
<circle cx="55" cy="55" r="55" fill="#FFE870" fill-opacity="0.95"/>
<path d="M58.3802 10.7454C61.1634 12.1107 64.2616 13.056 66.6247 14.9464C68.7777 16.5743 70.5631 18.9899 71.7709 21.4054C74.6591 27.1293 72.6111 30.3851 66.0471 30.6476C68.3051 32.4856 67.0448 34.271 66.3096 36.1614C65.942 37.1592 65.4694 38.367 65.732 39.3122C67.0448 44.4059 65.7845 48.4494 61.2684 51.285C60.9533 51.4951 60.7433 51.8627 60.4282 52.2828C61.8986 52.4928 61.8986 52.4928 65.6795 49.027C65.5219 51.9152 63.8415 53.6481 61.8461 55.0134C61.4785 55.276 60.1131 54.6983 59.5355 54.1732C57.0149 51.6001 55.0194 51.5476 52.5514 54.2257C51.0285 55.9061 50.2933 55.6961 47.8777 52.5978C49.2956 52.4403 50.976 55.3285 52.0262 52.0727C51.2911 51.6526 50.6084 51.2325 49.8732 50.8124C46.3549 48.7644 44.3594 44.3534 45.5147 40.4675C46.0923 38.577 45.9873 37.0542 45.0421 35.3212C44.1494 33.6934 43.0466 31.6979 46.0923 30.7001C46.3024 30.6476 45.9873 28.1796 45.4622 27.0768C44.7795 25.7115 43.3092 24.7662 42.7315 23.4009C41.0511 19.515 42.1014 17.3095 45.8823 15.314C48.5079 13.9487 51.0285 12.3208 53.5491 10.7979C55.2295 10.7454 56.8049 10.7454 58.3802 10.7454ZM45.6722 24.5037C45.7773 23.2959 45.8298 22.5607 45.8823 21.8255C48.2978 21.6155 50.5559 21.458 53.129 21.2479C52.4463 20.3027 52.1838 19.8826 51.8162 19.41C55.7021 19.1999 59.3255 23.0333 63.1064 19.41C63.579 19.7776 63.9466 20.3552 64.4717 20.5652C65.4169 20.9853 66.4671 21.1954 67.4649 21.5105C67.4124 20.4602 67.3599 19.3575 67.2023 18.3072C67.0973 17.8346 66.6772 17.4145 66.3621 16.9944C63.0013 12.6359 56.1222 10.903 51.186 13.3185C50.1358 13.8437 49.5056 15.0514 48.2978 16.3643C46.985 16.3117 44.5695 15.7866 43.7818 18.4648C43.0991 20.5127 43.0991 22.6132 45.6722 24.5037ZM62.4762 32.7481C61.8461 33.0107 61.636 33.1157 61.426 33.2207C60.6383 33.6934 59.1679 34.2185 59.1154 34.7436C59.0629 36.214 59.5355 37.7368 60.0606 39.1546C60.1131 39.3122 62.4762 39.1021 62.6337 38.682C63.3689 36.3715 63.9991 34.0084 64.1041 31.5929C64.1566 30.6476 62.8963 28.9672 62.0036 28.8097C58.3277 28.127 54.5993 27.7595 50.871 27.6019C49.9782 27.5494 48.4029 28.4421 48.1928 29.2298C46.9325 33.0107 48.1928 36.7391 48.3504 40.835C50.5034 39.1546 53.8642 40.0999 53.7066 37.2117C54.7569 37.4743 55.8596 38.1044 56.7523 37.8944C57.225 37.7893 57.54 36.2665 57.6451 35.3212C57.8026 33.9034 57.4875 32.2755 57.9601 31.0152C58.2227 30.3326 59.7456 30.07 60.7433 29.7024C61.0059 29.5974 61.426 30.0175 61.8986 30.2275C61.3209 30.5426 60.9533 30.8052 60.3757 31.1202C61.1109 31.6979 61.636 32.118 62.4762 32.7481ZM47.8252 26.5517C53.129 26.5517 57.9601 26.5517 63.2639 26.5517C62.3712 25.6064 61.741 24.9238 61.0584 24.2411C61.4785 24.1361 61.9511 24.0311 62.5287 23.926C59.7981 22.1931 50.9235 22.2982 48.928 24.1361C48.2978 24.6612 48.1928 25.764 47.8252 26.5517ZM53.6541 41.3602C53.6016 41.5177 53.6016 41.6752 53.5491 41.8328C53.9692 42.0428 54.3893 42.3054 54.8094 42.5154C54.7569 42.6205 54.7044 42.7255 54.6519 42.8305C53.5491 42.5154 52.4463 42.1479 51.0285 41.7278C51.5011 43.8808 51.9212 45.3511 54.4418 44.5109C55.387 44.1958 56.5423 44.1958 57.4875 44.4584C60.0606 45.036 60.4807 44.7735 60.5332 41.7803C59.5355 42.0953 58.5903 42.4104 57.3825 42.778C57.8551 42.2529 58.1702 41.8853 58.6953 41.3602C56.8049 41.3602 55.2295 41.3602 53.6541 41.3602Z" fill="#931B1E"/>
<path d="M69.9855 92.4023C55.5446 92.9799 41.0511 93.0849 26.7677 90.9319L69.9855 92.4023ZM25.4549 91.0369C22.5142 84.6829 24.1421 77.3312 26.8202 72.08C28.0805 69.6119 27.5029 67.5639 25.665 65.2008C22.3042 60.9473 19.5735 56.2212 16.7379 51.6526C15.425 49.5521 15.7926 47.8192 18.4183 46.7164C20.9914 45.6662 23.4069 44.1959 25.875 42.9356C27.2403 42.2004 28.1331 42.4629 28.8682 43.8283C30.076 45.9813 31.4939 47.9767 32.5966 50.1823C33.5944 52.1777 34.7496 52.2303 36.535 51.3375C38.8456 50.1823 41.3137 49.237 44.2544 47.9242C44.832 51.18 45.2521 53.8056 45.8298 56.4312C45.9873 57.2189 46.6174 58.4267 47.2476 58.5843C52.9714 60.1071 58.8003 60.4747 64.6292 59.1094C66.3621 58.6893 67.0973 57.8491 66.9923 56.0111C66.8347 53.438 66.9397 50.8124 66.9397 48.1868C75.6568 48.6594 80.6455 52.4403 82.641 60.5272C84.2689 67.0388 85.8442 73.6028 86.8945 80.2194C87.3146 83.0025 86.3694 90.1967 86.0018 93.4M40.8411 74.8106C41.0511 75.0207 41.2087 75.2307 41.4187 75.4408C42.0489 75.1782 43.0466 75.0732 43.3092 74.548C44.5169 72.2375 46.4074 72.4475 48.2453 73.1827C50.6084 74.1279 53.1815 75.0732 55.1245 76.6485C58.1177 79.1691 60.5332 82.3724 63.3689 85.103C65.1018 86.7834 67.0448 88.3588 69.1453 89.5666C71.5083 90.9319 76.2344 90.3018 77.5473 88.8314C81.4332 84.4204 79.4902 77.1737 73.9764 75.2307C71.5608 74.3905 69.0928 73.8129 66.7822 72.8676C59.588 69.9269 52.1838 67.5639 45.7247 63.0478C42.9416 61.1049 39.9484 61.7875 37.3752 63.5204C35.4323 64.8332 34.172 66.8287 34.6971 69.5068C35.5373 68.8767 36.115 68.089 36.7451 67.3538C37.3752 66.6187 38.1629 65.936 38.8456 65.2533C38.373 67.5639 35.5898 68.9817 37.5853 71.9224C38.6355 70.7671 39.5283 69.7694 40.5785 68.5616C39.8958 70.3996 39.3182 71.8699 38.7406 73.3403C39.1607 73.6553 39.6333 74.0229 40.0534 74.338C40.631 73.1302 41.2087 71.9224 41.8388 70.7146C41.9963 70.8722 42.1539 71.0822 42.3639 71.2398C41.7863 72.4475 41.3137 73.6553 40.8411 74.8106ZM44.2019 77.4887C41.9438 76.8061 40.3159 76.281 38.583 75.8609C38.0579 75.7558 37.3227 75.8083 36.9026 76.1234C33.9619 78.0139 31.8614 84.8405 33.2268 87.9912C33.5418 88.6739 34.277 89.5666 34.9597 89.6716C41.5762 90.9319 47.8252 89.9342 53.339 85.7857C55.5971 84.1053 55.8596 81.7948 54.1267 79.5892C53.0765 78.2764 51.7111 77.1737 50.8184 76.281C48.6129 77.6463 46.8275 78.6965 44.832 79.9043C44.4644 78.539 44.2544 77.8038 44.2019 77.4887ZM70.6681 50.7074C70.9307 56.2737 71.1407 61.63 71.4033 66.9337C71.7184 66.9337 72.086 66.9862 72.401 66.9862C72.6111 64.8858 72.8211 62.7853 73.0312 60.7373C73.8189 61.9451 74.0289 63.1528 74.1339 64.3081C74.239 65.5684 73.9764 66.5136 75.8144 67.1963C78.3875 68.1415 79.1226 70.5046 78.545 73.3403C78.3349 74.338 78.9126 75.4933 79.2277 76.596C79.9103 78.8016 80.7505 80.9546 81.2756 83.1601C81.5382 84.2628 81.3282 85.4706 81.3282 86.941C84.5314 84.3679 84.2689 81.0596 80.9606 72.7101C81.5382 71.8174 82.1684 70.8197 82.0108 69.9269C81.1706 65.4634 80.2254 61.0523 79.1226 56.6413C78.0724 52.5453 74.8166 51.285 70.6681 50.7074ZM30.6011 49.7097C29.4459 47.7667 28.6057 46.4539 27.923 45.0886C27.2403 43.6707 26.3476 43.4082 24.9823 44.1959C23.1444 45.1936 21.3064 46.1913 19.3635 47.0315C18.0507 47.6092 17.8931 48.5019 18.5758 49.5521C21.7265 54.3833 24.8773 59.1619 28.0805 63.9405C28.3956 64.4131 29.5509 64.7807 30.0235 64.5707C32.0715 63.6255 34.067 62.5227 36.0099 61.3149C36.535 60.9998 37.0602 59.8446 36.9026 59.5295C36.535 58.8993 35.6423 58.2692 34.9597 58.2692C32.9642 58.2692 30.9687 58.6893 28.9733 58.7418C27.9755 58.7418 26.5577 58.6893 26.0851 58.0591C24.6147 56.1687 23.512 54.0157 22.0416 51.6526C25.2449 51.6526 27.818 51.6526 30.3386 51.6526C30.3386 51.4951 30.3911 51.3901 30.3911 51.2325C27.7655 50.7599 25.1398 50.3398 22.5142 49.8672C22.5667 49.6571 22.5667 49.4471 22.6193 49.237C24.9823 49.3946 27.3454 49.4996 30.6011 49.7097ZM33.5418 65.2008C31.2838 66.4611 29.2883 67.3538 28.9207 69.8744C28.7632 70.8722 28.5532 71.9224 28.0805 72.7101C25.77 76.491 25.1924 80.5345 25.77 84.788C25.875 85.6282 26.3476 86.4684 26.6627 87.2561C26.8202 87.2035 26.9253 87.151 27.0828 87.151C27.1353 86.1008 27.2403 84.998 27.3454 83.4752C28.028 85.3656 28.4481 86.6784 28.9207 87.9912C29.1833 87.9912 29.4459 87.9912 29.7609 87.9912C28.7107 81.8473 31.4413 77.3312 36.2725 73.7604C35.9574 73.4978 35.6949 73.2352 35.3798 73.0252C33.8569 74.1279 32.3341 75.1782 30.8637 76.281C30.7587 76.1759 30.6011 76.0709 30.4961 76.0184C31.7039 74.548 32.9117 73.0777 33.6469 72.185C33.5418 69.6119 33.5418 67.6164 33.5418 65.2008ZM34.6446 53.5956C36.535 56.0637 38.0579 58.2692 39.7908 60.2647C40.631 61.2624 41.6813 60.9998 41.6813 59.582C41.6813 56.8513 41.4712 54.0682 41.3662 50.8124C38.9506 51.8102 37.0602 52.5978 34.6446 53.5956ZM76.9696 69.5068C73.8714 68.5616 71.5083 69.9795 71.4033 72.7101C73.2412 71.6599 75.0267 70.6096 76.9696 69.5068Z" fill="#931B1E"/>
<path d="M50.6609 32.5381C51.3961 32.1705 52.1312 31.7504 53.6016 30.9627C52.0787 30.7527 51.291 30.6476 50.4508 30.5426C50.4508 30.3326 50.4508 30.07 50.4508 29.8599C51.6061 29.965 52.8664 29.8074 53.8641 30.2275C54.3893 30.4376 54.4943 31.6979 54.7569 32.4856C53.4966 32.8531 52.1837 33.1682 50.9234 33.5358C50.8184 33.2207 50.7659 32.9057 50.6609 32.5381Z" fill="#931B1E"/>
</svg>
