<svg width="16" height="19" viewBox="0 0 16 19" fill="none" xmlns="http://www.w3.org/2000/svg">
<path d="M8 0C5.19685 0 2.90909 2.28776 2.90909 5.09091V6.54546H1.45455C0.650909 6.54546 0 7.19636 0 8V16.7273C0 17.5309 0.650909 18.1818 1.45455 18.1818H14.5455C15.3491 18.1818 16 17.5309 16 16.7273V8C16 7.19636 15.3491 6.54546 14.5455 6.54546H13.0909V5.09091C13.0909 2.37933 10.9357 0.19532 8.25852 0.0525568C8.17627 0.0194258 8.08866 0.00161394 8 0ZM8 1.45455C10.0172 1.45455 11.6364 3.0737 11.6364 5.09091V6.54546H4.36364V5.09091C4.36364 3.0737 5.98279 1.45455 8 1.45455Z" fill="black" fill-opacity="0.4"/>
</svg>
