<svg width="26" height="26" viewBox="0 0 26 26" fill="none" xmlns="http://www.w3.org/2000/svg">
<path d="M5.41667 14.0833L16.25 14.0833L12.6858 17.6475C12.5843 17.7482 12.5037 17.868 12.4487 18.0001C12.3937 18.1321 12.3654 18.2737 12.3654 18.4167C12.3654 18.5597 12.3937 18.7013 12.4487 18.8333C12.5037 18.9653 12.5843 19.0851 12.6858 19.1858C12.8888 19.3876 13.1634 19.5009 13.4496 19.5009C13.7358 19.5009 14.0104 19.3876 14.2133 19.1858L18.8608 14.5275C19.2677 14.1231 19.4976 13.5737 19.5 13C19.4947 12.4301 19.2651 11.8852 18.8608 11.4834L14.2133 6.82502C14.1123 6.72472 13.9926 6.6453 13.8609 6.5913C13.7291 6.53729 13.5881 6.50975 13.4458 6.51025C13.3034 6.51075 13.1626 6.53929 13.0312 6.59423C12.8999 6.64917 12.7807 6.72943 12.6804 6.83044C12.5801 6.93145 12.5007 7.05122 12.4467 7.18292C12.3927 7.31463 12.3651 7.45567 12.3656 7.59802C12.3662 7.74036 12.3947 7.88121 12.4496 8.01253C12.5046 8.14385 12.5848 8.26306 12.6858 8.36335L16.25 11.9167L5.41667 11.9167C5.12935 11.9167 4.8538 12.0308 4.65064 12.234C4.44747 12.4371 4.33333 12.7127 4.33333 13C4.33333 13.2873 4.44747 13.5629 4.65064 13.766C4.8538 13.9692 5.12935 14.0833 5.41667 14.0833Z" fill="#AAAAAA"/>
</svg>
